<svg width="595.28" height="841.89" xmlns="http://www.w3.org/2000/svg" xml:space="preserve" version="1.1">
 <defs>
  <radialGradient gradientUnits="userSpaceOnUse" r="166.9054" cy="390.4396" cx="301.2122" id="SVGID_1_">
   <stop stop-color="#D13D38" offset="0.6872"/>
   <stop stop-color="#E94D3D" offset="1"/>
  </radialGradient>
 </defs>
 <g>
  <title>Layer 1</title>
  <path id="svg_5" stroke-miterlimit="10" stroke-width="3" stroke="#F3A82F" fill="#FCBD30" d="m182.16,111.72c48.3,0 47.52,49.1 47.52,60.14c0,11.04 -10.11,34.63 -14.74,41.36c-4.63,6.74 -3.37,29.06 5.05,32.01c8.42,2.95 66.55,-27.8 73.29,-19.37c6.74,8.42 18.11,75.39 0,98.14c-18.11,22.74 -37.91,-18.53 -71.6,-9.69s7.58,66.13 27.38,68.23c48.26,5.13 36.25,39.39 40.01,52.23c0.48,1.62 11.29,40.71 -13.7,64.37c-21.1,19.97 -58.66,20.39 -68.43,6.38c-7.58,-10.87 5.46,-22.59 4.63,-50.54c-0.42,-14.32 -6.83,-49.97 -28.56,-50.4c-22.77,-0.13 -28.14,36.08 -28.56,50.4s9.5,46.35 4.63,50.54c-15.56,13.4 -66.55,7.16 -76.23,0c-9.69,-7.16 -6.74,-47.59 -5.9,-70.76c0.84,-23.17 20.22,-50.12 40.01,-52.23s61.07,-59.39 27.38,-68.23s-53.49,32.43 -71.6,9.69c-18.11,-22.74 -6.74,-89.71 0,-98.14c6.74,-8.42 64.86,22.32 73.29,19.37c8.42,-2.95 9.69,-25.27 5.05,-32.01c-4.63,-6.74 -14.74,-30.33 -14.74,-41.36c-0.01,-11.02 -1.17,-60.13 45.82,-60.13z" class="st6"/>
  <path id="svg_6" stroke-miterlimit="10" stroke-width="3" stroke="#1997A5" fill="#0EA9CB" d="m419.43,111.09c48.3,0 47.52,49.1 47.52,60.14c0,11.04 -10.11,34.63 -14.74,41.36c-4.63,6.74 -3.37,29.06 5.05,32.01c8.42,2.95 66.55,-27.8 73.29,-19.37c6.74,8.42 18.11,75.39 0,98.14c-18.11,22.74 -37.91,-18.53 -71.6,-9.69c-33.69,8.84 7.58,66.13 27.38,68.23c19.8,2.11 39.17,29.06 40.01,52.23c0.84,23.17 3.79,63.6 -5.9,70.76c-9.69,7.16 -56.65,6.18 -76.23,0c-6,-1.9 5.05,-36.22 4.63,-50.54c-0.42,-14.32 -6.83,-49.97 -28.56,-50.4c-22.77,-0.13 -28.14,36.08 -28.56,50.4c-0.82,27.94 12.14,39.35 4.63,50.54c-10.02,14.93 -50.1,15.73 -71.36,-5.59c-23.44,-23.51 -11.86,-61.76 -10.77,-65.17c4.04,-12.66 -8.4,-47.08 40.01,-52.23c19.8,-2.11 61.07,-59.39 27.38,-68.23c-33.69,-8.84 -53.49,32.43 -71.6,9.69c-18.11,-22.74 -6.74,-89.71 0,-98.14c6.74,-8.42 64.86,22.32 73.29,19.37c8.42,-2.95 9.69,-25.27 5.05,-32.01c-4.63,-6.74 -14.74,-30.33 -14.74,-41.36c-0.01,-11.04 -1.17,-60.14 45.82,-60.14z" class="st7"/>
  <path id="svg_7" stroke-miterlimit="10" stroke-width="3" stroke="url(#SVGID_1_)" fill="#E94D3D" d="m300.37,189.59c48.3,0 47.52,49.1 47.52,60.14s-10.11,34.63 -14.74,41.36s-3.37,29.06 5.05,32.01s66.55,-27.8 73.29,-19.37s18.11,75.39 0,98.14s-37.91,-18.53 -71.6,-9.69s7.58,66.13 27.38,68.23c19.8,2.11 39.17,29.06 40.01,52.23c0.84,23.17 3.79,63.6 -5.9,70.76c-9.69,7.16 -56.65,6.18 -76.23,0c-6,-1.9 5.05,-36.22 4.63,-50.54c-0.42,-14.32 -6.83,-49.97 -28.56,-50.4c-22.77,-0.13 -28.14,36.08 -28.56,50.4c-0.42,14.32 9.5,46.35 4.63,50.54c-15.56,13.4 -66.55,7.16 -76.23,0c-9.69,-7.16 -6.74,-47.59 -5.9,-70.76c0.84,-23.17 20.22,-50.12 40.01,-52.23s61.07,-59.39 27.38,-68.23s-53.49,32.43 -71.6,9.69s-6.74,-89.71 0,-98.14s64.86,22.32 73.29,19.37c8.42,-2.95 9.69,-25.27 5.05,-32.01c-4.63,-6.74 -14.74,-30.33 -14.74,-41.36s-1.17,-60.14 45.82,-60.14z" class="st8"/>
 </g>
</svg>