<?xml version="1.0" encoding="utf-8"?>
<!-- Generator: Adobe Illustrator 26.0.3, SVG Export Plug-In . SVG Version: 6.00 Build 0)  -->
<svg version="1.1" id="Calque_1" xmlns="http://www.w3.org/2000/svg" xmlns:xlink="http://www.w3.org/1999/xlink" x="0px" y="0px"
	 viewBox="0 0 595.28 841.89" style="enable-background:new 0 0 595.28 841.89;" xml:space="preserve">
<style type="text/css">
	.st0{fill:none;}
	.st1{fill:#020203;}
	.st2{font-family:'RobotoCondensed-Regular';}
	.st3{font-size:65.9859px;}
	.st4{fill:#E94D3D;}
	.st5{font-size:31.3433px;}
	.st6{fill:#FCBD30;stroke:#F3A82F;stroke-width:3;stroke-miterlimit:10;}
	.st7{fill:#0EA9CB;stroke:#1997A5;stroke-width:3;stroke-miterlimit:10;}
	.st8{fill:#E94D3D;stroke:url(#SVGID_1_);stroke-width:3;stroke-miterlimit:10;}
</style>
<rect x="95.39" y="608.15" class="st0" width="415.29" height="87.61"/>
<text transform="matrix(1 0 0 1 187.7233 657.6362)" class="st1 st2 st3">ACT’yme</text>
<rect x="119.26" y="674.03" class="st0" width="363.91" height="50.54"/>
<text transform="matrix(1 0 0 1 151.6738 697.5356)" class="st4 st2 st5">La force du changement</text>
<path class="st6" d="M182.16,111.72c48.3,0,47.52,49.1,47.52,60.14c0,11.04-10.11,34.63-14.74,41.36
	c-4.63,6.74-3.37,29.06,5.05,32.01c8.42,2.95,66.55-27.8,73.29-19.37c6.74,8.42,18.11,75.39,0,98.14
	c-18.11,22.74-37.91-18.53-71.6-9.69s7.58,66.13,27.38,68.23c48.26,5.13,36.25,39.39,40.01,52.23c0.48,1.62,11.29,40.71-13.7,64.37
	c-21.1,19.97-58.66,20.39-68.43,6.38c-7.58-10.87,5.46-22.59,4.63-50.54c-0.42-14.32-6.83-49.97-28.56-50.4
	c-22.77-0.13-28.14,36.08-28.56,50.4s9.5,46.35,4.63,50.54c-15.56,13.4-66.55,7.16-76.23,0c-9.69-7.16-6.74-47.59-5.9-70.76
	c0.84-23.17,20.22-50.12,40.01-52.23s61.07-59.39,27.38-68.23s-53.49,32.43-71.6,9.69c-18.11-22.74-6.74-89.71,0-98.14
	c6.74-8.42,64.86,22.32,73.29,19.37c8.42-2.95,9.69-25.27,5.05-32.01c-4.63-6.74-14.74-30.33-14.74-41.36
	C136.33,160.83,135.17,111.72,182.16,111.72z"/>
<path class="st7" d="M419.43,111.09c48.3,0,47.52,49.1,47.52,60.14c0,11.04-10.11,34.63-14.74,41.36
	c-4.63,6.74-3.37,29.06,5.05,32.01c8.42,2.95,66.55-27.8,73.29-19.37c6.74,8.42,18.11,75.39,0,98.14
	c-18.11,22.74-37.91-18.53-71.6-9.69c-33.69,8.84,7.58,66.13,27.38,68.23c19.8,2.11,39.17,29.06,40.01,52.23
	c0.84,23.17,3.79,63.6-5.9,70.76c-9.69,7.16-56.65,6.18-76.23,0c-6-1.9,5.05-36.22,4.63-50.54c-0.42-14.32-6.83-49.97-28.56-50.4
	c-22.77-0.13-28.14,36.08-28.56,50.4c-0.82,27.94,12.14,39.35,4.63,50.54c-10.02,14.93-50.1,15.73-71.36-5.59
	c-23.44-23.51-11.86-61.76-10.77-65.17c4.04-12.66-8.4-47.08,40.01-52.23c19.8-2.11,61.07-59.39,27.38-68.23
	c-33.69-8.84-53.49,32.43-71.6,9.69c-18.11-22.74-6.74-89.71,0-98.14c6.74-8.42,64.86,22.32,73.29,19.37
	c8.42-2.95,9.69-25.27,5.05-32.01c-4.63-6.74-14.74-30.33-14.74-41.36C373.6,160.19,372.44,111.09,419.43,111.09z"/>
<radialGradient id="SVGID_1_" cx="301.2122" cy="390.4396" r="166.9054" gradientUnits="userSpaceOnUse">
	<stop  offset="0.6872" style="stop-color:#D13D38"/>
	<stop  offset="1" style="stop-color:#E94D3D"/>
</radialGradient>
<path class="st8" d="M300.37,189.59c48.3,0,47.52,49.1,47.52,60.14s-10.11,34.63-14.74,41.36s-3.37,29.06,5.05,32.01
	s66.55-27.8,73.29-19.37s18.11,75.39,0,98.14s-37.91-18.53-71.6-9.69s7.58,66.13,27.38,68.23c19.8,2.11,39.17,29.06,40.01,52.23
	c0.84,23.17,3.79,63.6-5.9,70.76c-9.69,7.16-56.65,6.18-76.23,0c-6-1.9,5.05-36.22,4.63-50.54c-0.42-14.32-6.83-49.97-28.56-50.4
	c-22.77-0.13-28.14,36.08-28.56,50.4c-0.42,14.32,9.5,46.35,4.63,50.54c-15.56,13.4-66.55,7.16-76.23,0
	c-9.69-7.16-6.74-47.59-5.9-70.76c0.84-23.17,20.22-50.12,40.01-52.23s61.07-59.39,27.38-68.23s-53.49,32.43-71.6,9.69
	s-6.74-89.71,0-98.14s64.86,22.32,73.29,19.37c8.42-2.95,9.69-25.27,5.05-32.01c-4.63-6.74-14.74-30.33-14.74-41.36
	S253.38,189.59,300.37,189.59z"/>
</svg>
