<svg width="18" height="18" viewBox="0 0 18 18" xmlns="http://www.w3.org/2000/svg">
    <symbol id="add">
        <g fill="none" stroke-width="2" stroke-linecap="round" stroke="currentColor">
            <path d="M4 9H16" />
            <path d="M10 3L10 15" />
        </g>
    </symbol>
    <symbol id="arrow-right">
        <path
            d="M13.5 8.13397C14.1667 8.51887 14.1667 9.48113 13.5 9.86603L7.5 13.3301C6.83333 13.715 6 13.2339 6 12.4641L6 5.5359C6 4.7661 6.83333 4.28497 7.5 4.66987L13.5 8.13397Z" />
    </symbol>
    <symbol id="arrow-left">
        <path d="M4.5,9.9c-0.7-0.4-0.7-1.3,0-1.7l6-3.5C11.2,4.3,12,4.8,12,5.5v6.9c0,0.8-0.8,1.3-1.5,0.9L4.5,9.9z" />
    </symbol>
    <symbol id="caret">
        <path
            d="M9.78321 12.0134C9.38285 12.5177 8.61715 12.5177 8.21679 12.0134L5.5243 8.62175C5.00404 7.9664 5.47075 7 6.30751 7L11.6925 7C12.5292 7 12.996 7.9664 12.4757 8.62176L9.78321 12.0134Z" />
    </symbol>
    <symbol id="projects">
        <g fill="none" stroke-width="2" stroke-linecap="round" stroke="currentColor">

            <rect x="1.5" y="10" width="15" height="6" rx="2" />
            <path d="M14 6L4 6" />
            <path d="M12.5 2L5.5 2" />
        </g>
    </symbol>
    <symbol id="users">
        <g fill="currentColor">
            <path
                d="M9.00005 1.06561C8.17505 1.06561 7.38403 1.39323 6.80074 1.9767C6.21731 2.55999 5.88965 3.35097 5.88965 4.17601C5.88965 5.00106 6.21726 5.79203 6.80074 6.37533C7.38403 6.95876 8.17501 7.28641 9.00005 7.28641C9.82509 7.28641 10.6161 6.9588 11.1994 6.37533C11.7828 5.79203 12.1104 5.00106 12.1104 4.17601C12.1104 3.35097 11.7828 2.55999 11.1994 1.9767C10.6161 1.39327 9.82509 1.06561 9.00005 1.06561V1.06561ZM9.00005 5.21291V5.21272C8.72505 5.21272 8.46142 5.10352 8.26688 4.90916C8.07252 4.71461 7.96331 4.451 7.96331 4.17599C7.96331 3.90098 8.07252 3.63736 8.26688 3.44282C8.46143 3.24846 8.72504 3.13925 9.00005 3.13925C9.27506 3.13925 9.53868 3.24846 9.73321 3.44282C9.92758 3.63737 10.0368 3.90098 10.0368 4.17599C10.0368 4.451 9.92758 4.71462 9.73321 4.90916C9.53867 5.10352 9.27506 5.21272 9.00005 5.21272V5.21291Z" />
            <path
                d="M1.7424 17.6544C2.0174 17.6544 2.28121 17.5452 2.47557 17.3508C2.66993 17.1563 2.77932 16.8927 2.77932 16.6177V16.3065C2.78673 15.695 3.0366 15.1114 3.47397 14.6836C3.91134 14.256 4.50041 14.0193 5.11207 14.0257C5.61071 14.0241 6.09671 14.1823 6.49865 14.4771C6.90076 14.7719 7.1978 15.1879 7.34642 15.6638C7.49613 16.1344 7.83946 16.5188 8.29023 16.7208C8.74098 16.9225 9.25645 16.9225 9.70718 16.7208C10.1581 16.5188 10.5014 16.1344 10.6512 15.6638C10.7998 15.1874 11.0972 14.7712 11.4999 14.4764C11.9025 14.1816 12.3891 14.0235 12.8881 14.0257C13.4997 14.0194 14.0888 14.2561 14.5262 14.6837C14.9635 15.1114 15.2134 15.6951 15.2208 16.3065V16.6177C15.2208 16.9882 15.4184 17.3304 15.7394 17.5155C16.0601 17.7007 16.4554 17.7007 16.7761 17.5155C17.0968 17.3304 17.2944 16.9881 17.2944 16.6177V16.3065C17.2906 14.889 16.5936 13.5628 15.4282 12.7555C16.0525 12.2209 16.4396 11.4608 16.5051 10.6414C16.5707 9.82218 16.3093 9.01019 15.7781 8.38315C15.2468 7.75594 14.4889 7.3645 13.6701 7.29437C12.851 7.22422 12.0378 7.48115 11.4077 8.00893C10.7774 8.5365 10.3818 9.2923 10.3071 10.1108C10.2325 10.9292 10.4847 11.7441 11.0088 12.3771C10.1551 12.7769 9.45122 13.439 9.00012 14.2667C8.54901 13.439 7.84515 12.7769 6.99141 12.3771C7.51555 11.7441 7.76776 10.9293 7.6931 10.1108C7.61844 9.29225 7.22284 8.5365 6.59257 8.00893C5.96248 7.48118 5.14919 7.22425 4.33017 7.29437C3.51133 7.36453 2.7534 7.75597 2.22218 8.38315C1.69096 9.01019 1.42953 9.82218 1.49517 10.6414C1.56062 11.4608 1.94772 12.2209 2.57205 12.7555C1.40658 13.5628 0.709606 14.889 0.705811 16.3065V16.6177C0.705811 16.8927 0.815017 17.1563 1.00938 17.3509C1.20392 17.5452 1.46753 17.6544 1.74255 17.6544L1.7424 17.6544ZM13.4064 9.36C13.6814 9.36 13.9452 9.46921 14.1396 9.66375C14.3339 9.85811 14.4433 10.1219 14.4433 10.3967C14.4433 10.6717 14.3339 10.9355 14.1396 11.1299C13.9452 11.3244 13.6814 11.4336 13.4064 11.4336C13.1314 11.4336 12.8678 11.3244 12.6732 11.1299C12.4789 10.9355 12.3697 10.6717 12.3697 10.3967C12.3697 10.1219 12.4789 9.8581 12.6732 9.66375C12.8678 9.46921 13.1314 9.36 13.4064 9.36ZM4.5936 9.36C4.8686 9.36 5.13223 9.46921 5.32677 9.66375C5.52113 9.85811 5.63034 10.1219 5.63034 10.3967C5.63034 10.6717 5.52113 10.9355 5.32677 11.1299C5.13223 11.3244 4.86861 11.4336 4.5936 11.4336C4.3186 11.4336 4.05479 11.3244 3.86044 11.1299C3.66607 10.9355 3.55669 10.6717 3.55669 10.3967C3.55669 10.1219 3.66607 9.8581 3.86044 9.66375C4.0548 9.46921 4.31859 9.36 4.5936 9.36Z" />
        </g>
    </symbol>

    <symbol id="informations">
        <g fill="none" stroke-width="2" stroke-linecap="round" stroke="currentColor">
            <rect x="1" y="2" width="16" height="14" rx="3" />
            <circle cx="9" cy="8.25" r="2.75" />
            <path d="M4.69446 15.5C5.25618 13.04 6.97134 11.25 9.00004 11.25C11.0288 11.25 12.7439 13.04 13.3056 15.5" />
        </g>
    </symbol>

    <symbol id="layers">
        <g fill="none" stroke-width="2" stroke-linecap="round" stroke="currentColor">
            <path
                d="M1,13.2l7.1,3.6c0.6,0.3,1.2,0.3,1.8,0l7.1-3.6 M2.1,7.8l6,3c0.6,0.3,1.2,0.3,1.8,0l6-3c1.5-0.7,1.5-2.8,0-3.6l-6-3c-0.6-0.3-1.2-0.3-1.8,0l-6,3C0.6,4.9,0.6,7.1,2.1,7.8z" />
        </g>
    </symbol>

    <symbol id="cogwheel">
        <g fill="none" stroke-width="2" stroke-linecap="round" stroke="currentColor">
            <path class="st0" d="M15,9c0-0.1,0-0.3,0-0.4l1.2-2.1L14.8,4l-2.4,0c-0.2-0.2-0.5-0.3-0.7-0.4l-1.2-2.1H7.5L6.3,3.6C6.1,3.7,5.8,3.8,5.6,4L3.2,4L1.8,6.5L3,8.6C3,8.7,3,8.9,3,9s0,0.3,0,0.4l-1.2,2.1L3.2,14l2.4,0c0.2,0.2,0.5,0.3,0.7,0.4l1.2,2.1h2.9l1.2-2.1c0.3-0.1,0.5-0.3,0.7-0.4l2.4,0l1.5-2.5L15,9.4C15,9.3,15,9.1,15,9z M9,11.3c-1.3,0-2.3-1-2.3-2.3c0-1.3,1-2.3,2.3-2.3c1.3,0,2.3,1,2.3,2.3C11.3,10.3,10.3,11.3,9,11.3z" />
        </g>
    </symbol>

    <symbol id="grid">
        <g stroke-linecap="round" fill="currentColor">
            <path
                d="M14.5904 0H3.36701C2.47395 0 1.61767 0.354644 0.986254 0.986255C0.354688 1.61767 0 2.4739 0 3.36701V14.5904C0 15.4835 0.354643 16.3397 0.986254 16.9712C1.61767 17.6027 2.4739 17.9574 3.36701 17.9574H14.5904C15.4835 17.9574 16.3397 17.6028 16.9712 16.9712C17.6027 16.3397 17.9574 15.4835 17.9574 14.5904V3.36701C17.9574 2.47395 17.6028 1.61767 16.9712 0.986255C16.3397 0.354689 15.4835 0 14.5904 0V0ZM7.57578 10.101H10.3816V15.7127H7.57578V10.101ZM3.36701 2.24468H10.3816V7.85637H2.24468V3.36691C2.24468 3.06922 2.36289 2.78385 2.57329 2.57326C2.78388 2.36286 3.06924 2.24465 3.36694 2.24465L3.36701 2.24468ZM2.24478 14.5904V10.1009H5.33111V15.7126H3.36706C3.06937 15.7126 2.784 15.5944 2.57341 15.384C2.36301 15.1734 2.2448 14.8881 2.2448 14.5904L2.24478 14.5904ZM15.7128 14.5904H15.7126C15.7126 14.8881 15.5944 15.1735 15.384 15.384C15.1734 15.5944 14.8881 15.7127 14.5904 15.7127H12.6263V2.24461H14.5904C14.8881 2.24461 15.1734 2.36282 15.384 2.57322C15.5944 2.78381 15.7126 3.06917 15.7126 3.36687L15.7128 14.5904Z" />
        </g>
    </symbol>

    <symbol id="home">
        <g fill="none" stroke-width="2" stroke-linecap="round" stroke="currentColor">
            <path
                d="M1,7c0-0.7,0.3-1.2,0.9-1.5l6-4.1c0.7-0.5,1.6-0.5,2.3,0l6,4.1C16.7,5.8,17,6.3,17,7v8c0,1.1-0.9,2-2,2H3c-1.1,0-2-0.9-2-2V7z M6.5,8v1 M11.5,8v1" />
        </g>
    </symbol>

    <symbol id="maximize">
        <g>
            <path fill="currentColor"
                d="M0,1l0,4.1C0,6,1.1,6.4,1.7,5.8l4.1-4.1C6.4,1.1,6,0,5.1,0L1,0C0.4,0,0,0.4,0,1z M18,17v-4.1c0-0.9-1.1-1.3-1.7-0.7l-4.1,4.1C11.6,16.9,12,18,12.9,18H17C17.6,18,18,17.6,18,17z" />
            <path fill="none" stroke-width="2" stroke-linecap="round" stroke="currentColor"
                d="M17,7V2c0-0.6-0.4-1-1-1h-5 M1,11l0,5c0,0.6,0.4,1,1,1h5" />
        </g>
    </symbol>

    <symbol id="minimize">
        <g>
            <path fill="currentColor"
                d="M11,12v4.1c0,0.9,1.1,1.3,1.7,0.7l4.1-4.1c0.6-0.6,0.2-1.7-0.7-1.7H12C11.4,11,11,11.4,11,12z M7,6V1.9C7,1,5.9,0.6,5.3,1.2L1.2,5.3C0.6,5.9,1,7,1.9,7H6C6.6,7,7,6.6,7,6z" />
            <path fill="none" stroke-width="2" stroke-linecap="round" stroke="currentColor"
                d="M17,7V2c0-0.6-0.4-1-1-1h-5 M1,11l0,5c0,0.6,0.4,1,1,1h5" />
        </g>
    </symbol>
    <symbol id="filter">
        <g fill="none" stroke-width="1.5" stroke="currentColor" stroke-miterlimit="10">
            <path d="M17.1361 1.16895H0.86377V1.88086L7.3727 9H10.6272L17.1361 1.88086V1.16895Z" />
            <path d="M10.6273 13.9834L7.3728 16.1191V9H10.6273V13.9834Z" />
        </g>
    </symbol>

    <symbol id="export">
        <g fill="currentColor" stroke-width="1.5">
            <path
                d="M5.6392 12.3608V10.116H3.39448C2.92338 10.116 2.46424 10.2642 2.08199 10.5398C1.69975 10.8151 1.4138 11.204 1.26484 11.6509L0.142601 15.0178C-0.0856093 15.7025 0.0290848 16.455 0.451054 17.0404C0.873028 17.6256 1.55059 17.9724 2.27225 17.9724H15.7403C16.4619 17.9724 17.1395 17.6256 17.5615 17.0404C17.9835 16.455 18.0982 15.7025 17.87 15.0178L16.7477 11.6509C16.5988 11.204 16.3128 10.8151 15.9306 10.5398C15.5483 10.2642 15.0892 10.116 14.6181 10.116H12.3734V12.3608H14.6181L15.7403 15.7277H10.1286V3.84797L12.3734 6.0927L13.9614 4.50444L9.80039 0.343422C9.5898 0.132633 9.30424 0.0142212 9.00634 0.0142212C8.70843 0.0142212 8.42287 0.132633 8.21228 0.343422L4.05126 4.50444L5.63932 6.0927L7.88405 3.84797V15.7277H2.27236L3.3946 12.3608H5.6392Z" />
        </g>
    </symbol>
</svg>
